<svg xmlns="http://www.w3.org/2000/svg" viewBox="0 0 9.38 23.35">
	<path fill="#242121" d="M9.17 22.21c0.07-0.07 0.13-0.13 0.17-0.23 0.13-0.27-0.12-0.94-0.22-1.22 -0.24-0.84-0.49-1.69-0.71-2.53 -0.09-0.4-0.11-0.98-0.41-1.28 -0.58-0.58-3.13 0.29-3.65-0.22 -0.26-0.26-0.35-0.82-0.45-1.18 -0.77-2.68-0.77-5.07 0-7.75 0.09-0.36 0.19-0.93 0.45-1.18 0.51-0.51 3.07 0.36 3.65-0.22 0.29-0.29 0.31-0.88 0.41-1.28 0.22-0.84 0.47-1.69 0.71-2.53 0.09-0.28 0.35-0.96 0.22-1.22 -0.04-0.09-0.1-0.16-0.17-0.23 -0.34-0.34-1.16-0.85-1.61-1.02 -0.66-0.27-1.5-0.04-2.16 0.15 -0.86 0.26-1.61 0.64-2.24 1.28C2.28 2.43 1.84 3.59 1.33 4.69c-0.37 0.79-0.67 1.6-0.87 2.44 -0.62 2.6-0.62 6.49 0 9.09 0.2 0.84 0.5 1.66 0.87 2.44 0.51 1.1 0.95 2.25 1.83 3.13 0.63 0.63 1.38 1.02 2.24 1.28 0.66 0.19 1.5 0.42 2.16 0.15C8.02 23.06 8.83 22.55 9.17 22.21z"/>
</svg>
